<?xml version="1.0" encoding="UTF-8"?>
<!--Generator: Apple Native CoreSVG 149-->
<!DOCTYPE svg
PUBLIC "-//W3C//DTD SVG 1.1//EN"
       "http://www.w3.org/Graphics/SVG/1.1/DTD/svg11.dtd">
<svg version="1.1" xmlns="http://www.w3.org/2000/svg" xmlns:xlink="http://www.w3.org/1999/xlink" width="3300" height="2200">
 <!--glyph: "uni10018F.medium", point size: 100.000000, font version: "Version 16.0d18e1", template writer version: "8"-->
 <g id="Notes">
  <rect height="2200" id="artboard" style="fill:white;opacity:1" width="3300" x="0" y="0"/>
  <line id="" style="fill:none;stroke:black;opacity:1;stroke-width:0.5;" x1="263" x2="3036" y1="292" y2="292"/>
  <text style="stroke:none;fill:black;font-family:-apple-system,&quot;SF Pro Display&quot;,&quot;SF Pro Text&quot;,Helvetica,sans-serif;font-weight:bold;" transform="matrix(1 0 0 1 263 322)">Weight/Scale Variations</text>
  <text style="stroke:none;fill:black;font-family:-apple-system,&quot;SF Pro Display&quot;,&quot;SF Pro Text&quot;,Helvetica,sans-serif;text-anchor:middle;" transform="matrix(1 0 0 1 559.711 322)">Ultralight</text>
  <text style="stroke:none;fill:black;font-family:-apple-system,&quot;SF Pro Display&quot;,&quot;SF Pro Text&quot;,Helvetica,sans-serif;text-anchor:middle;" transform="matrix(1 0 0 1 856.422 322)">Thin</text>
  <text style="stroke:none;fill:black;font-family:-apple-system,&quot;SF Pro Display&quot;,&quot;SF Pro Text&quot;,Helvetica,sans-serif;text-anchor:middle;" transform="matrix(1 0 0 1 1153.13 322)">Light</text>
  <text style="stroke:none;fill:black;font-family:-apple-system,&quot;SF Pro Display&quot;,&quot;SF Pro Text&quot;,Helvetica,sans-serif;text-anchor:middle;" transform="matrix(1 0 0 1 1449.84 322)">Regular</text>
  <text style="stroke:none;fill:black;font-family:-apple-system,&quot;SF Pro Display&quot;,&quot;SF Pro Text&quot;,Helvetica,sans-serif;text-anchor:middle;" transform="matrix(1 0 0 1 1746.56 322)">Medium</text>
  <text style="stroke:none;fill:black;font-family:-apple-system,&quot;SF Pro Display&quot;,&quot;SF Pro Text&quot;,Helvetica,sans-serif;text-anchor:middle;" transform="matrix(1 0 0 1 2043.27 322)">Semibold</text>
  <text style="stroke:none;fill:black;font-family:-apple-system,&quot;SF Pro Display&quot;,&quot;SF Pro Text&quot;,Helvetica,sans-serif;text-anchor:middle;" transform="matrix(1 0 0 1 2339.98 322)">Bold</text>
  <text style="stroke:none;fill:black;font-family:-apple-system,&quot;SF Pro Display&quot;,&quot;SF Pro Text&quot;,Helvetica,sans-serif;text-anchor:middle;" transform="matrix(1 0 0 1 2636.69 322)">Heavy</text>
  <text style="stroke:none;fill:black;font-family:-apple-system,&quot;SF Pro Display&quot;,&quot;SF Pro Text&quot;,Helvetica,sans-serif;text-anchor:middle;" transform="matrix(1 0 0 1 2933.4 322)">Black</text>
  <line id="" style="fill:none;stroke:black;opacity:1;stroke-width:0.5;" x1="263" x2="3036" y1="1903" y2="1903"/>
  <g id="" transform="matrix(1 0 0 1 263 1933)">
   <path d="M9.24805 0.830078C13.5547 0.830078 17.1387-2.74414 17.1387-7.05078C17.1387-11.3574 13.5449-14.9316 9.23828-14.9316C4.94141-14.9316 1.36719-11.3574 1.36719-7.05078C1.36719-2.74414 4.95117 0.830078 9.24805 0.830078ZM9.24805-0.654297C5.70312-0.654297 2.87109-3.49609 2.87109-7.05078C2.87109-10.6055 5.69336-13.4473 9.23828-13.4473C12.793-13.4473 15.6348-10.6055 15.6445-7.05078C15.6543-3.49609 12.8027-0.654297 9.24805-0.654297ZM6.39648-6.31836L8.50586-6.31836L8.50586-4.19922C8.50586-3.75977 8.79883-3.45703 9.22852-3.45703C9.67773-3.45703 9.9707-3.75977 9.9707-4.19922L9.9707-6.31836L12.0996-6.31836C12.5391-6.31836 12.8418-6.61133 12.8418-7.04102C12.8418-7.48047 12.5391-7.7832 12.0996-7.7832L9.9707-7.7832L9.9707-9.89258C9.9707-10.3418 9.67773-10.6445 9.22852-10.6445C8.79883-10.6445 8.50586-10.3418 8.50586-9.89258L8.50586-7.7832L6.39648-7.7832C5.94727-7.7832 5.64453-7.48047 5.64453-7.04102C5.64453-6.61133 5.94727-6.31836 6.39648-6.31836Z"/>
  </g>
  <g id="" transform="matrix(1 0 0 1 281.506 1933)">
   <path d="M11.709 2.91016C17.1582 2.91016 21.6699-1.61133 21.6699-7.05078C21.6699-12.5 17.1484-17.0117 11.6992-17.0117C6.25977-17.0117 1.74805-12.5 1.74805-7.05078C1.74805-1.61133 6.26953 2.91016 11.709 2.91016ZM11.709 1.25C7.09961 1.25 3.41797-2.44141 3.41797-7.05078C3.41797-11.6602 7.08984-15.3516 11.6992-15.3516C16.3086-15.3516 20-11.6602 20.0098-7.05078C20.0195-2.44141 16.3184 1.25 11.709 1.25ZM7.98828-6.23047L10.8789-6.23047L10.8789-3.32031C10.8789-2.83203 11.2109-2.5 11.6895-2.5C12.1777-2.5 12.5195-2.83203 12.5195-3.32031L12.5195-6.23047L15.4297-6.23047C15.918-6.23047 16.25-6.5625 16.25-7.04102C16.25-7.5293 15.918-7.87109 15.4297-7.87109L12.5195-7.87109L12.5195-10.7617C12.5195-11.2695 12.1777-11.6016 11.6895-11.6016C11.2109-11.6016 10.8789-11.2598 10.8789-10.7617L10.8789-7.87109L7.98828-7.87109C7.48047-7.87109 7.14844-7.5293 7.14844-7.04102C7.14844-6.5625 7.49023-6.23047 7.98828-6.23047Z"/>
  </g>
  <g id="" transform="matrix(1 0 0 1 304.924 1933)">
   <path d="M14.9707 5.66406C21.9336 5.66406 27.6953-0.0976562 27.6953-7.05078C27.6953-14.0137 21.9238-19.7754 14.9609-19.7754C8.00781-19.7754 2.25586-14.0137 2.25586-7.05078C2.25586-0.0976562 8.01758 5.66406 14.9707 5.66406ZM14.9707 3.84766C8.93555 3.84766 4.08203-1.01562 4.08203-7.05078C4.08203-13.0957 8.92578-17.9492 14.9609-17.9492C21.0059-17.9492 25.8594-13.0957 25.8691-7.05078C25.8789-1.01562 21.0156 3.84766 14.9707 3.84766ZM10.0586-6.14258L14.0625-6.14258L14.0625-2.12891C14.0625-1.5918 14.4336-1.2207 14.9512-1.2207C15.4883-1.2207 15.8594-1.5918 15.8594-2.12891L15.8594-6.14258L19.8828-6.14258C20.4102-6.14258 20.791-6.51367 20.791-7.03125C20.791-7.56836 20.4199-7.94922 19.8828-7.94922L15.8594-7.94922L15.8594-11.9531C15.8594-12.5098 15.4883-12.8809 14.9512-12.8809C14.4336-12.8809 14.0625-12.5 14.0625-11.9531L14.0625-7.94922L10.0586-7.94922C9.50195-7.94922 9.13086-7.56836 9.13086-7.03125C9.13086-6.51367 9.51172-6.14258 10.0586-6.14258Z"/>
  </g>
  <text style="stroke:none;fill:black;font-family:-apple-system,&quot;SF Pro Display&quot;,&quot;SF Pro Text&quot;,Helvetica,sans-serif;font-weight:bold;" transform="matrix(1 0 0 1 263 1953)">Design Variations</text>
  <text style="stroke:none;fill:black;font-family:-apple-system,&quot;SF Pro Display&quot;,&quot;SF Pro Text&quot;,Helvetica,sans-serif;" transform="matrix(1 0 0 1 263 1971)">Symbols are supported in up to nine weights and three scales.</text>
  <text style="stroke:none;fill:black;font-family:-apple-system,&quot;SF Pro Display&quot;,&quot;SF Pro Text&quot;,Helvetica,sans-serif;" transform="matrix(1 0 0 1 263 1989)">For optimal layout with text and other symbols, vertically align</text>
  <text style="stroke:none;fill:black;font-family:-apple-system,&quot;SF Pro Display&quot;,&quot;SF Pro Text&quot;,Helvetica,sans-serif;" transform="matrix(1 0 0 1 263 2007)">symbols with the adjacent text.</text>
  <line id="" style="fill:none;stroke:#00AEEF;stroke-width:0.5;opacity:1.0;" x1="776" x2="776" y1="1919" y2="1933"/>
  <g id="" transform="matrix(1 0 0 1 776 1933)">
   <path d="M3.31055 0.126953C3.82812 0.126953 4.08203-0.0683594 4.26758-0.605469L5.52734-4.0625L11.2891-4.0625L12.5488-0.605469C12.7344-0.0683594 12.9883 0.126953 13.4961 0.126953C14.0137 0.126953 14.3457-0.185547 14.3457-0.673828C14.3457-0.839844 14.3164-0.986328 14.2383-1.20117L9.6582-13.3887C9.43359-13.9941 9.0332-14.2871 8.4082-14.2871C7.80273-14.2871 7.39258-13.9941 7.17773-13.3984L2.59766-1.19141C2.51953-0.976562 2.49023-0.830078 2.49023-0.664062C2.49023-0.175781 2.80273 0.126953 3.31055 0.126953ZM6.00586-5.53711L8.37891-12.1094L8.42773-12.1094L10.8008-5.53711Z"/>
  </g>
  <line id="" style="fill:none;stroke:#00AEEF;stroke-width:0.5;opacity:1.0;" x1="792.836" x2="792.836" y1="1919" y2="1933"/>
  <text style="stroke:none;fill:black;font-family:-apple-system,&quot;SF Pro Display&quot;,&quot;SF Pro Text&quot;,Helvetica,sans-serif;font-weight:bold;" transform="matrix(1 0 0 1 776 1953)">Margins</text>
  <text style="stroke:none;fill:black;font-family:-apple-system,&quot;SF Pro Display&quot;,&quot;SF Pro Text&quot;,Helvetica,sans-serif;" transform="matrix(1 0 0 1 776 1971)">Leading and trailing margins on the left and right side of each symbol</text>
  <text style="stroke:none;fill:black;font-family:-apple-system,&quot;SF Pro Display&quot;,&quot;SF Pro Text&quot;,Helvetica,sans-serif;" transform="matrix(1 0 0 1 776 1989)">can be adjusted by modifying the x-location of the margin guidelines.</text>
  <text style="stroke:none;fill:black;font-family:-apple-system,&quot;SF Pro Display&quot;,&quot;SF Pro Text&quot;,Helvetica,sans-serif;" transform="matrix(1 0 0 1 776 2007)">Modifications are automatically applied proportionally to all</text>
  <text style="stroke:none;fill:black;font-family:-apple-system,&quot;SF Pro Display&quot;,&quot;SF Pro Text&quot;,Helvetica,sans-serif;" transform="matrix(1 0 0 1 776 2025)">scales and weights.</text>
  <g id="" transform="matrix(1 0 0 1 1289 1933)">
   <path d="M2.8418 1.86523L4.54102 3.57422C5.40039 4.44336 6.38672 4.38477 7.31445 3.35938L17.4902-7.85156C17.7539-7.76367 18.0273-7.7832 18.3398-7.8418L19.4043-8.03711L20.0684-7.36328L20.0293-6.80664C19.9902-6.30859 20.1172-5.92773 20.6055-5.44922L21.3672-4.70703C21.8457-4.22852 22.4609-4.19922 22.9297-4.66797L25.8398-7.58789C26.3086-8.05664 26.2891-8.65234 25.8105-9.13086L25.0391-9.89258C24.5605-10.3711 24.1895-10.5273 23.7109-10.4883L23.1348-10.4395L22.4902-11.0742L22.7344-12.1973C22.8613-12.7637 22.7051-13.2031 22.1191-13.7891L19.9219-15.9766C16.582-19.2969 12.1484-19.2188 9.25781-16.3281C8.83789-15.918 8.80859-15.3418 9.04297-14.9512C9.27734-14.5898 9.73633-14.3555 10.3809-14.5215C11.8457-14.8633 13.3691-14.9219 14.7949-13.9844L14.209-12.5293C14.0137-12.0508 13.9844-11.6504 14.1113-11.2891L3.04688-0.898438C2.06055 0.0195312 1.98242 0.996094 2.8418 1.86523ZM10.752-15.957C13.1836-17.7344 16.4746-17.4316 18.7012-15.2051L21.1328-12.793C21.3672-12.5586 21.4062-12.373 21.3379-12.0312L21.0156-10.5469L22.5195-9.0625L23.5059-9.12109C23.7598-9.13086 23.8379-9.11133 24.0332-8.91602L24.6094-8.33984L22.168-5.89844L21.5918-6.47461C21.3965-6.66992 21.3672-6.74805 21.377-7.01172L21.4453-7.98828L19.9512-9.47266L18.4277-9.21875C18.1055-9.15039 17.959-9.17969 17.7148-9.41406L15.7129-11.416C15.459-11.6504 15.4297-11.8164 15.5859-12.1875L16.4648-14.2773C14.9023-15.7324 12.8711-16.3574 10.8398-15.7617C10.6836-15.7227 10.625-15.8496 10.752-15.957ZM5.27344 2.30469L4.10156 1.14258C3.63281 0.683594 3.74023 0.341797 4.14062-0.0195312L14.9512-10.1953L16.416-8.71094L6.42578 2.27539C6.07422 2.67578 5.74219 2.77344 5.27344 2.30469Z"/>
  </g>
  <text style="stroke:none;fill:black;font-family:-apple-system,&quot;SF Pro Display&quot;,&quot;SF Pro Text&quot;,Helvetica,sans-serif;font-weight:bold;" transform="matrix(1 0 0 1 1289 1953)">Exporting</text>
  <text style="stroke:none;fill:black;font-family:-apple-system,&quot;SF Pro Display&quot;,&quot;SF Pro Text&quot;,Helvetica,sans-serif;" transform="matrix(1 0 0 1 1289 1971)">Symbols should be outlined when exporting to ensure the</text>
  <text style="stroke:none;fill:black;font-family:-apple-system,&quot;SF Pro Display&quot;,&quot;SF Pro Text&quot;,Helvetica,sans-serif;" transform="matrix(1 0 0 1 1289 1989)">design is preserved when submitting to Xcode.</text>
  <text id="template-version" style="stroke:none;fill:black;font-family:-apple-system,&quot;SF Pro Display&quot;,&quot;SF Pro Text&quot;,Helvetica,sans-serif;text-anchor:end;" transform="matrix(1 0 0 1 3036 1933)">Template v.2.0</text>
  <text style="stroke:none;fill:black;font-family:-apple-system,&quot;SF Pro Display&quot;,&quot;SF Pro Text&quot;,Helvetica,sans-serif;text-anchor:end;" transform="matrix(1 0 0 1 3036 1951)">Requires Xcode 12 or greater</text>
  <text style="stroke:none;fill:black;font-family:-apple-system,&quot;SF Pro Display&quot;,&quot;SF Pro Text&quot;,Helvetica,sans-serif;text-anchor:end;" transform="matrix(1 0 0 1 3036 1969)">Generated from chevron.up.chevron.down</text>
  <text style="stroke:none;fill:black;font-family:-apple-system,&quot;SF Pro Display&quot;,&quot;SF Pro Text&quot;,Helvetica,sans-serif;text-anchor:end;" transform="matrix(1 0 0 1 3036 1987)">Typeset at 100 points</text>
  <text style="stroke:none;fill:black;font-family:-apple-system,&quot;SF Pro Display&quot;,&quot;SF Pro Text&quot;,Helvetica,sans-serif;" transform="matrix(1 0 0 1 263 726)">Small</text>
  <text style="stroke:none;fill:black;font-family:-apple-system,&quot;SF Pro Display&quot;,&quot;SF Pro Text&quot;,Helvetica,sans-serif;" transform="matrix(1 0 0 1 263 1156)">Medium</text>
  <text style="stroke:none;fill:black;font-family:-apple-system,&quot;SF Pro Display&quot;,&quot;SF Pro Text&quot;,Helvetica,sans-serif;" transform="matrix(1 0 0 1 263 1586)">Large</text>
 </g>
 <g id="Guides">
  <g id="H-reference" style="fill:#27AAE1;stroke:none;" transform="matrix(1 0 0 1 339 696)">
   <path d="M0.976562 0L3.66211 0L12.9883-24.4629L45.752-24.4629L55.127 0L57.7637 0L30.6152-70.459L28.125-70.459ZM29.3457-67.1387L29.4434-67.1387L44.873-26.709L13.8672-26.709Z"/>
  </g>
  <line id="Baseline-S" style="fill:none;stroke:#27AAE1;opacity:1;stroke-width:0.5;" x1="263" x2="3036" y1="696" y2="696"/>
  <line id="Capline-S" style="fill:none;stroke:#27AAE1;opacity:1;stroke-width:0.5;" x1="263" x2="3036" y1="625.541" y2="625.541"/>
  <g id="H-reference" style="fill:#27AAE1;stroke:none;" transform="matrix(1 0 0 1 339 1126)">
   <path d="M0.976562 0L3.66211 0L12.9883-24.4629L45.752-24.4629L55.127 0L57.7637 0L30.6152-70.459L28.125-70.459ZM29.3457-67.1387L29.4434-67.1387L44.873-26.709L13.8672-26.709Z"/>
  </g>
  <line id="Baseline-M" style="fill:none;stroke:#27AAE1;opacity:1;stroke-width:0.5;" x1="263" x2="3036" y1="1126" y2="1126"/>
  <line id="Capline-M" style="fill:none;stroke:#27AAE1;opacity:1;stroke-width:0.5;" x1="263" x2="3036" y1="1055.54" y2="1055.54"/>
  <g id="H-reference" style="fill:#27AAE1;stroke:none;" transform="matrix(1 0 0 1 339 1556)">
   <path d="M0.976562 0L3.66211 0L12.9883-24.4629L45.752-24.4629L55.127 0L57.7637 0L30.6152-70.459L28.125-70.459ZM29.3457-67.1387L29.4434-67.1387L44.873-26.709L13.8672-26.709Z"/>
  </g>
  <line id="Baseline-L" style="fill:none;stroke:#27AAE1;opacity:1;stroke-width:0.5;" x1="263" x2="3036" y1="1556" y2="1556"/>
  <line id="Capline-L" style="fill:none;stroke:#27AAE1;opacity:1;stroke-width:0.5;" x1="263" x2="3036" y1="1485.54" y2="1485.54"/>
  <line id="left-margin" style="fill:none;stroke:#00AEEF;stroke-width:0.5;opacity:1.0;" x1="1399.84" x2="1399.84" y1="1030.79" y2="1150.12"/>
  <line id="right-margin" style="fill:none;stroke:#00AEEF;stroke-width:0.5;opacity:1.0;" x1="1499.84" x2="1499.84" y1="1030.79" y2="1150.12"/>
 </g>
 <g id="Symbols">
  <g id="Black-L" transform="matrix(1 0 0 1 2859.33 1556)">
   <path d="M74.0723-102.1C70.0684-102.1 67.041-100.195 63.3301-97.2168L20.8984-63.4766C17.9199-61.0352 16.0645-57.4707 16.0645-53.9551C16.0645-46.3379 22.5098-41.0645 28.8086-41.0645C32.1289-41.0645 35.3027-42.4805 38.2324-44.7754L74.0723-72.7539L109.912-44.7754C112.842-42.4805 116.016-41.0645 119.336-41.0645C125.684-41.0645 132.08-46.3379 132.08-53.9551C132.08-57.4707 130.273-61.0352 127.246-63.4766L84.8633-97.2168C81.1035-100.195 78.0762-102.1 74.0723-102.1ZM74.0723 30.4199C78.0762 30.4199 81.1035 28.4668 84.8633 25.4883L127.246-8.25195C130.273-10.6934 132.08-14.2578 132.08-17.7734C132.08-25.3906 125.684-30.6641 119.336-30.6641C116.016-30.6641 112.842-29.248 109.912-26.9531L74.0723 1.02539L38.2324-26.9531C35.3027-29.248 32.1289-30.6641 28.8086-30.6641C22.5098-30.6641 16.0645-25.3906 16.0645-17.7734C16.0645-14.2578 17.9199-10.6934 20.8984-8.25195L63.3301 25.4883C67.041 28.4668 70.0684 30.4199 74.0723 30.4199Z"/>
  </g>
  <g id="Heavy-L" transform="matrix(1 0 0 1 2564.89 1556)">
   <path d="M71.8262-99.5117C68.457-99.5117 65.8691-97.9004 62.6953-95.3613L20.1172-61.2793C17.5781-59.1797 16.0645-56.25 16.0645-53.1738C16.0645-46.6797 21.4844-42.1875 26.9531-42.1875C29.7363-42.1875 32.4707-43.3594 35.0098-45.3125L71.8262-74.4629L108.643-45.3125C111.133-43.3594 113.867-42.1875 116.65-42.1875C122.168-42.1875 127.539-46.6797 127.539-53.1738C127.539-56.25 126.025-59.1797 123.486-61.2793L80.9082-95.4102C77.7344-97.9004 75.1465-99.5117 71.8262-99.5117ZM71.8262 27.7832C75.1465 27.7832 77.7344 26.2207 80.9082 23.6816L123.486-10.4492C126.025-12.5 127.539-15.4785 127.539-18.5547C127.539-25.0488 122.168-29.541 116.65-29.541C113.867-29.541 111.133-28.3691 108.643-26.3672L71.8262 2.73438L35.0098-26.3672C32.4707-28.3691 29.7363-29.541 26.9531-29.541C21.4844-29.541 16.0645-25.0488 16.0645-18.5547C16.0645-15.4785 17.5781-12.5 20.1172-10.4492L62.6953 23.6816C65.8691 26.1719 68.457 27.7832 71.8262 27.7832Z"/>
  </g>
  <g id="Bold-L" transform="matrix(1 0 0 1 2270.69 1556)">
   <path d="M69.2871-96.582C66.6504-96.582 64.5508-95.3613 62.0117-93.3105L19.2383-58.7891C17.2852-57.1777 16.0645-54.834 16.0645-52.2461C16.0645-47.0703 20.3125-43.4082 24.8535-43.4082C27.0996-43.4082 29.248-44.2871 31.3477-45.9473L69.2871-76.3184L107.178-45.9473C109.277-44.2871 111.475-43.4082 113.672-43.4082C118.262-43.4082 122.51-47.0703 122.51-52.2461C122.51-54.834 121.289-57.1777 119.336-58.7891L76.5137-93.3105C73.9746-95.3613 71.9238-96.582 69.2871-96.582ZM69.2871 24.8535C71.9238 24.8535 73.9746 23.6816 76.5137 21.6309L119.336-12.8906C121.289-14.502 122.51-16.8457 122.51-19.4336C122.51-24.6094 118.262-28.3203 113.672-28.3203C111.475-28.3203 109.277-27.3926 107.178-25.7324L69.2871 4.63867L31.3477-25.7324C29.248-27.3926 27.0996-28.3203 24.8535-28.3203C20.3125-28.3203 16.0645-24.6094 16.0645-19.4336C16.0645-16.8457 17.2852-14.502 19.2383-12.8906L62.0117 21.6309C64.5508 23.6328 66.6504 24.8535 69.2871 24.8535Z"/>
  </g>
  <g id="Semibold-L" transform="matrix(1 0 0 1 1975.74 1556)">
   <path d="M67.5293-94.5312C65.3809-94.5312 63.623-93.5547 61.5234-91.8945L18.6035-57.0801C17.041-55.7617 16.0645-53.9062 16.0645-51.6602C16.0645-47.3633 19.5312-44.2383 23.4375-44.2383C25.293-44.2383 27.0508-44.9707 28.8574-46.3867L67.5293-77.6367L106.201-46.3867C107.959-44.9707 109.814-44.2383 111.621-44.2383C115.527-44.2383 118.994-47.3633 118.994-51.6602C118.994-53.9062 118.018-55.7617 116.455-57.0801L73.4863-91.8945C71.3867-93.6035 69.6777-94.5312 67.5293-94.5312ZM67.5293 22.8516C69.6777 22.8516 71.3867 21.9238 73.4863 20.2148L116.455-14.5996C118.018-15.918 118.994-17.7734 118.994-20.0195C118.994-24.3164 115.527-27.4414 111.621-27.4414C109.814-27.4414 107.959-26.709 106.201-25.293L67.5293 5.95703L28.8574-25.293C27.0508-26.709 25.293-27.4414 23.4375-27.4414C19.5312-27.4414 16.0645-24.3164 16.0645-20.0195C16.0645-17.7734 17.041-15.918 18.6035-14.5996L61.5234 20.2148C63.623 21.875 65.3809 22.8516 67.5293 22.8516Z"/>
  </g>
  <g id="Medium-L" transform="matrix(1 0 0 1 1680.34 1556)">
   <path d="M66.2109-93.0176C64.4531-93.0176 62.9395-92.2363 61.1816-90.8203L18.1641-55.8105C16.8457-54.7363 16.0645-53.1738 16.0645-51.2207C16.0645-47.5586 18.9453-44.873 22.3633-44.873C23.877-44.873 25.3906-45.5078 26.9531-46.7285L66.2109-78.6133L105.469-46.7285C106.982-45.5078 108.545-44.873 110.059-44.873C113.477-44.873 116.357-47.5586 116.357-51.2207C116.357-53.1738 115.576-54.7363 114.258-55.8105L71.1914-90.8203C69.4336-92.2363 67.9688-93.0176 66.2109-93.0176ZM66.2109 21.3379C67.9688 21.3379 69.4336 20.6055 71.1914 19.1895L114.258-15.8691C115.576-16.9434 116.357-18.5059 116.357-20.459C116.357-24.1211 113.477-26.8066 110.059-26.8066C108.545-26.8066 106.982-26.1719 105.469-24.9512L66.2109 6.93359L26.9531-24.9512C25.3906-26.1719 23.877-26.8066 22.3633-26.8066C18.9453-26.8066 16.0645-24.1211 16.0645-20.459C16.0645-18.5059 16.8457-16.9434 18.1641-15.8691L61.1816 19.1406C62.9395 20.5566 64.4531 21.3379 66.2109 21.3379Z"/>
  </g>
  <g id="Regular-L" transform="matrix(1 0 0 1 1385.37 1556)">
   <path d="M64.4531-91.0156C63.1836-91.0156 62.0117-90.4785 60.7422-89.4043L17.5781-54.1504C16.6504-53.3203 16.0645-52.2461 16.0645-50.5859C16.0645-47.8516 18.1641-45.7031 20.9473-45.7031C22.0703-45.7031 23.2422-46.1426 24.5117-47.168L64.502-79.9316L104.443-47.168C105.713-46.1426 106.885-45.7031 108.008-45.7031C110.84-45.7031 112.891-47.8516 112.891-50.5859C112.891-52.2461 112.305-53.3203 111.377-54.1504L68.1641-89.4531C66.8945-90.5273 65.7227-91.0156 64.4531-91.0156ZM64.4531 19.3359C65.7227 19.3359 66.8945 18.8477 68.1641 17.7734L111.377-17.5293C112.305-18.3105 112.891-19.4336 112.891-21.0938C112.891-23.8281 110.84-25.9277 108.008-25.9277C106.885-25.9277 105.713-25.4883 104.443-24.5117L64.502 8.25195L24.5117-24.5117C23.2422-25.4883 22.0703-25.9277 20.9473-25.9277C18.1641-25.9277 16.0645-23.8281 16.0645-21.0938C16.0645-19.4336 16.6504-18.3105 17.5781-17.5293L60.7422 17.7246C62.0117 18.7988 63.1836 19.3359 64.4531 19.3359Z"/>
  </g>
  <g id="Light-L" transform="matrix(1 0 0 1 1088.7 1556)">
   <path d="M64.4043-90.1855C63.3301-90.1855 62.4512-89.7461 61.4258-88.8672L17.2852-52.5879C16.5527-51.9531 16.0645-51.123 16.0645-49.8535C16.0645-47.8027 17.627-46.1914 19.7266-46.1914C20.5566-46.1914 21.4355-46.4844 22.4121-47.2656L64.4531-81.9824L106.445-47.2656C107.373-46.4844 108.301-46.1914 109.131-46.1914C111.279-46.1914 112.793-47.8027 112.793-49.8535C112.793-51.123 112.305-51.9531 111.572-52.5879L67.3828-88.9648C66.3574-89.7949 65.4785-90.1855 64.4043-90.1855ZM64.4043 18.5059C65.4785 18.5059 66.3574 18.1152 67.3828 17.2852L111.572-19.0918C112.305-19.7266 112.793-20.5566 112.793-21.8262C112.793-23.877 111.279-25.4395 109.131-25.4395C108.301-25.4395 107.373-25.1465 106.445-24.3652L64.4531 10.3027L22.4121-24.3652C21.4355-25.1465 20.5566-25.4395 19.7266-25.4395C17.627-25.4395 16.0645-23.877 16.0645-21.8262C16.0645-20.5566 16.5527-19.7266 17.2852-19.0918L61.4258 17.2363C62.4512 18.0664 63.3301 18.5059 64.4043 18.5059Z"/>
  </g>
  <g id="Thin-L" transform="matrix(1 0 0 1 792.042 1556)">
   <path d="M64.3555-89.1113C63.5254-89.1113 62.9883-88.7695 62.3047-88.1836L16.9434-50.5371C16.4062-50.0977 16.0645-49.6582 16.0645-48.877C16.0645-47.7539 16.8945-46.8262 18.1152-46.8262C18.6035-46.8262 19.0918-46.9727 19.6777-47.4609L64.4043-84.7168L109.082-47.4609C109.619-46.9727 110.156-46.8262 110.645-46.8262C111.865-46.8262 112.695-47.7539 112.695-48.877C112.695-49.6582 112.305-50.0977 111.768-50.5371L66.3086-88.2812C65.625-88.8184 65.1367-89.1113 64.3555-89.1113ZM64.3555 17.4316C65.1367 17.4316 65.625 17.1875 66.3086 16.6016L111.768-21.1426C112.305-21.582 112.695-22.0215 112.695-22.8027C112.695-23.9258 111.865-24.8047 110.645-24.8047C110.156-24.8047 109.619-24.707 109.082-24.2188L64.4043 13.0371L19.6777-24.2188C19.0918-24.707 18.6035-24.8047 18.1152-24.8047C16.8945-24.8047 16.0645-23.9258 16.0645-22.8027C16.0645-22.0215 16.4062-21.582 16.9434-21.1426L62.3047 16.5527C62.9883 17.0898 63.5254 17.4316 64.3555 17.4316Z"/>
  </g>
  <g id="Ultralight-L" transform="matrix(1 0 0 1 495.38 1556)">
   <path d="M64.3066-88.5742C63.623-88.5742 63.2324-88.2812 62.793-87.8418L16.7969-49.4629C16.3574-49.1211 16.0645-48.877 16.0645-48.3887C16.0645-47.7051 16.5527-47.168 17.2852-47.168C17.5781-47.168 17.9199-47.2168 18.2617-47.5586L64.4043-86.1328L110.4-47.5586C110.791-47.2168 111.084-47.168 111.426-47.168C112.158-47.168 112.598-47.7051 112.598-48.3887C112.598-48.877 112.305-49.1211 111.914-49.4629L65.7227-87.9395C65.2832-88.3301 64.9414-88.5742 64.3066-88.5742ZM64.3066 16.8945C64.9414 16.8945 65.2832 16.6992 65.7227 16.2598L111.914-22.168C112.305-22.5586 112.598-22.7539 112.598-23.291C112.598-23.9258 112.158-24.5117 111.426-24.5117C111.084-24.5117 110.791-24.4629 110.4-24.1211L64.4043 14.4531L18.2617-24.1211C17.9199-24.4629 17.5781-24.5117 17.2852-24.5117C16.5527-24.5117 16.0645-23.9258 16.0645-23.291C16.0645-22.7539 16.3574-22.5586 16.7969-22.168L62.793 16.2109C63.2324 16.6016 63.623 16.8945 64.3066 16.8945Z"/>
  </g>
  <g id="Black-M" transform="matrix(1 0 0 1 2872.95 1126)">
   <path d="M60.4492-90.1855C56.5918-90.1855 53.8086-88.2812 50.2441-85.498L17.1387-59.2285C14.209-56.8848 12.4512-53.5645 12.4512-50.3906C12.4512-43.3105 18.5059-38.5254 24.2188-38.5254C27.2949-38.5254 30.2734-39.8438 32.9102-41.9434L60.4492-63.1348L87.9883-41.9434C90.625-39.8438 93.6035-38.5254 96.6797-38.5254C102.344-38.5254 108.447-43.3105 108.447-50.3906C108.447-53.5645 106.641-56.8848 103.76-59.2285L70.6055-85.498C67.0898-88.2812 64.3066-90.1855 60.4492-90.1855ZM60.4492 18.7012C64.3066 18.7012 67.0898 16.7969 70.6055 14.0137L103.76-12.207C106.641-14.5508 108.447-17.9199 108.447-21.0449C108.447-28.125 102.344-32.9102 96.6797-32.9102C93.6035-32.9102 90.625-31.5918 87.9883-29.541L60.4492-8.30078L32.9102-29.541C30.2734-31.5918 27.2949-32.9102 24.2188-32.9102C18.5059-32.9102 12.4512-28.125 12.4512-21.0449C12.4512-17.9199 14.209-14.5508 17.1387-12.207L50.2441 14.0137C53.8086 16.7969 56.5918 18.7012 60.4492 18.7012Z"/>
  </g>
  <g id="Heavy-M" transform="matrix(1 0 0 1 2578.71 1126)">
   <path d="M57.959-87.5C54.7852-87.5 52.3926-85.9375 49.4141-83.5938L16.3574-57.2266C13.916-55.2734 12.4512-52.4902 12.4512-49.707C12.4512-43.7012 17.5293-39.5996 22.4609-39.5996C25.0977-39.5996 27.5879-40.7227 29.8828-42.5293L57.959-64.4531L86.0352-42.5293C88.3301-40.7227 90.8691-39.5996 93.457-39.5996C98.3887-39.5996 103.516-43.7012 103.516-49.707C103.516-52.4902 102.051-55.2734 99.6094-57.2266L66.5527-83.5938C63.5742-85.9375 61.1816-87.5 57.959-87.5ZM57.959 16.0645C61.1816 16.0645 63.5742 14.502 66.5527 12.1582L99.6094-14.209C102.051-16.1621 103.516-18.9453 103.516-21.7285C103.516-27.7344 98.3887-31.8359 93.457-31.8359C90.8691-31.8359 88.3301-30.7129 86.0352-28.9062L57.959-6.98242L29.8828-28.9062C27.5879-30.7129 25.0977-31.8359 22.4609-31.8359C17.5293-31.8359 12.4512-27.7344 12.4512-21.7285C12.4512-18.9453 13.916-16.1621 16.3574-14.209L49.4141 12.1582C52.3926 14.502 54.7852 16.0645 57.959 16.0645Z"/>
  </g>
  <g id="Bold-M" transform="matrix(1 0 0 1 2284.75 1126)">
   <path d="M55.2246-84.5215C52.7344-84.5215 50.8301-83.3496 48.4863-81.4941L15.4297-54.9805C13.5742-53.4668 12.4512-51.2695 12.4512-48.9746C12.4512-44.1895 16.4551-40.8203 20.5566-40.8203C22.6074-40.8203 24.6582-41.6504 26.5137-43.1641L55.2246-65.918L83.8867-43.1641C85.791-41.6504 87.793-40.8203 89.8926-40.8203C93.9941-40.8203 97.998-44.1895 97.998-48.9746C97.998-51.2695 96.875-53.4668 94.9707-54.9805L61.9629-81.4941C59.6191-83.3984 57.7148-84.5215 55.2246-84.5215ZM55.2246 13.1348C57.7148 13.1348 59.6191 11.9629 61.9629 10.0586L94.9707-16.4062C96.875-17.9199 97.998-20.1172 97.998-22.4609C97.998-27.2461 93.9941-30.6152 89.8926-30.6152C87.793-30.6152 85.791-29.7363 83.8867-28.2715L55.2246-5.51758L26.5137-28.2715C24.6582-29.7363 22.6074-30.6152 20.5566-30.6152C16.4551-30.6152 12.4512-27.2461 12.4512-22.4609C12.4512-20.1172 13.5742-17.9199 15.4297-16.4062L48.4863 10.0586C50.8301 11.9629 52.7344 13.1348 55.2246 13.1348Z"/>
  </g>
  <g id="Semibold-M" transform="matrix(1 0 0 1 1989.95 1126)">
   <path d="M53.3203-82.5195C51.3184-82.5195 49.7559-81.5918 47.8027-80.0293L14.8438-53.4668C13.3301-52.2461 12.4512-50.4883 12.4512-48.4375C12.4512-44.4824 15.6738-41.6504 19.2383-41.6504C20.9473-41.6504 22.6074-42.334 24.2188-43.6035L53.3203-66.9434L82.4219-43.6035C84.0332-42.334 85.6934-41.6504 87.4023-41.6504C90.9668-41.6504 94.1895-44.4824 94.1895-48.4375C94.1895-50.4883 93.3105-52.2461 91.7969-53.4668L58.7891-80.0781C56.8848-81.5918 55.2734-82.5195 53.3203-82.5195ZM53.3203 11.084C55.2734 11.084 56.8848 10.2051 58.7891 8.64258L91.7969-17.9688C93.3105-19.1895 94.1895-20.9473 94.1895-22.9492C94.1895-26.9531 90.9668-29.7852 87.4023-29.7852C85.6934-29.7852 84.0332-29.0527 82.4219-27.7832L53.3203-4.49219L24.2188-27.7832C22.6074-29.0527 20.9473-29.7852 19.2383-29.7852C15.6738-29.7852 12.4512-26.9531 12.4512-22.9492C12.4512-20.9473 13.3301-19.1895 14.8438-17.9688L47.8027 8.64258C49.7559 10.1562 51.3184 11.084 53.3203 11.084Z"/>
  </g>
  <g id="Medium-M" transform="matrix(1 0 0 1 1694.68 1126)">
   <path d="M51.8555-80.957C50.293-80.957 48.9258-80.2246 47.3145-78.9551L14.3555-52.2949C13.1836-51.3184 12.4512-49.8535 12.4512-48.0469C12.4512-44.7266 15.1367-42.2852 18.2129-42.2852C19.6289-42.2852 21.0449-42.8223 22.4609-43.9453L51.9043-67.6758L81.2988-43.9453C82.666-42.8223 84.1309-42.2852 85.5469-42.2852C88.623-42.2852 91.3086-44.7266 91.3086-48.0469C91.3086-49.8535 90.5762-51.3184 89.4043-52.2949L56.3965-78.9551C54.834-80.2246 53.4668-80.957 51.8555-80.957ZM51.8555 9.52148C53.4668 9.52148 54.834 8.83789 56.3965 7.56836L89.4043-19.0918C90.5762-20.1172 91.3086-21.582 91.3086-23.3398C91.3086-26.709 88.623-29.1504 85.5469-29.1504C84.1309-29.1504 82.666-28.5645 81.2988-27.4414L51.9043-3.71094L22.4609-27.4414C21.0449-28.5645 19.6289-29.1504 18.2129-29.1504C15.1367-29.1504 12.4512-26.709 12.4512-23.3398C12.4512-21.582 13.1836-20.1172 14.3555-19.0918L47.3145 7.51953C48.9258 8.83789 50.293 9.52148 51.8555 9.52148Z"/>
  </g>
  <g id="Regular-M" transform="matrix(1 0 0 1 1399.84 1126)">
   <path d="M50-78.9062C48.877-78.9062 47.8516-78.4668 46.6797-77.4902L13.7695-50.7812C12.9395-50.0488 12.4512-49.0234 12.4512-47.5586C12.4512-45.0195 14.3555-43.1152 16.8945-43.1152C17.9688-43.1152 18.9941-43.5059 20.166-44.3848L50-68.7012L79.834-44.3848C80.957-43.5059 82.0312-43.1152 83.0566-43.1152C85.6445-43.1152 87.5488-45.0195 87.5488-47.5586C87.5488-49.0234 87.0605-50.0488 86.2305-50.7812L53.3203-77.5391C52.1484-78.4668 51.0742-78.9062 50-78.9062ZM50 7.51953C51.0742 7.51953 52.1484 7.08008 53.3203 6.15234L86.2305-20.6055C87.0605-21.3379 87.5488-22.3633 87.5488-23.8281C87.5488-26.3672 85.6445-28.3203 83.0566-28.3203C82.0312-28.3203 80.957-27.8809 79.834-27.002L50-2.68555L20.166-27.002C18.9941-27.8809 17.9688-28.3203 16.8945-28.3203C14.3555-28.3203 12.4512-26.3672 12.4512-23.8281C12.4512-22.3633 12.9395-21.3379 13.7695-20.6055L46.6797 6.10352C47.8516 7.08008 48.877 7.51953 50 7.51953Z"/>
  </g>
  <g id="Light-M" transform="matrix(1 0 0 1 1103.18 1126)">
   <path d="M49.9512-78.1738C49.0234-78.1738 48.1934-77.832 47.2656-77.0508L13.5254-49.3652C12.8418-48.8281 12.4512-48.0469 12.4512-46.875C12.4512-44.9707 13.8672-43.5059 15.8203-43.5059C16.6016-43.5059 17.4316-43.7988 18.3105-44.5312L49.9512-70.5566L81.5918-44.5312C82.4707-43.7988 83.3008-43.5059 84.082-43.5059C86.0352-43.5059 87.4512-44.9707 87.4512-46.875C87.4512-48.0469 87.0605-48.8281 86.377-49.3652L52.5879-77.0996C51.6602-77.832 50.8789-78.1738 49.9512-78.1738ZM49.9512 6.78711C50.8789 6.78711 51.6602 6.44531 52.5879 5.66406L86.377-22.0215C87.0605-22.6074 87.4512-23.3398 87.4512-24.5117C87.4512-26.416 86.0352-27.8809 84.082-27.8809C83.3008-27.8809 82.4707-27.5879 81.5918-26.9043L49.9512-0.830078L18.3105-26.9043C17.4316-27.5879 16.6016-27.8809 15.8203-27.8809C13.8672-27.8809 12.4512-26.416 12.4512-24.5117C12.4512-23.3398 12.8418-22.6074 13.5254-22.0215L47.2656 5.66406C48.1934 6.39648 49.0234 6.78711 49.9512 6.78711Z"/>
  </g>
  <g id="Thin-M" transform="matrix(1 0 0 1 806.52 1126)">
   <path d="M49.8535-77.2461C49.2188-77.2461 48.6816-76.9531 48.0957-76.416L13.2324-47.5098C12.7441-47.1191 12.4512-46.7285 12.4512-45.9961C12.4512-44.9219 13.2324-44.0918 14.3555-44.0918C14.8438-44.0918 15.332-44.2383 15.8691-44.6777L49.9512-72.998L83.9355-44.6777C84.4727-44.2383 84.9609-44.0918 85.4492-44.0918C86.5723-44.0918 87.3535-44.9219 87.3535-45.9961C87.3535-46.7285 87.0605-47.1191 86.5723-47.5098L51.6113-76.4648C51.0254-77.002 50.5371-77.2461 49.8535-77.2461ZM49.8535 5.81055C50.5371 5.81055 51.0254 5.56641 51.6113 5.07812L86.5723-23.877C87.0605-24.2676 87.3535-24.6582 87.3535-25.3906C87.3535-26.4648 86.5723-27.2949 85.4492-27.2949C84.9609-27.2949 84.4727-27.1484 83.9355-26.709L49.9512 1.61133L15.8691-26.709C15.332-27.1484 14.8438-27.2949 14.3555-27.2949C13.2324-27.2949 12.4512-26.4648 12.4512-25.3906C12.4512-24.6582 12.7441-24.2676 13.2324-23.877L48.0957 5.0293C48.6816 5.51758 49.2188 5.81055 49.8535 5.81055Z"/>
  </g>
  <g id="Ultralight-M" transform="matrix(1 0 0 1 509.833 1126)">
   <path d="M49.8535-76.709C49.3164-76.709 48.9258-76.4648 48.4863-76.123L13.0859-46.582C12.6953-46.2891 12.4512-46.0449 12.4512-45.5566C12.4512-44.9219 12.9395-44.3848 13.623-44.3848C13.916-44.3848 14.209-44.4336 14.5996-44.7266L49.9023-74.2676L85.1562-44.7266C85.498-44.4336 85.791-44.3848 86.1328-44.3848C86.8164-44.3848 87.3047-44.9219 87.3047-45.5566C87.3047-46.0449 87.0605-46.2891 86.6699-46.582L51.123-76.1719C50.6836-76.5625 50.3906-76.709 49.8535-76.709ZM49.8535 5.32227C50.3906 5.32227 50.6836 5.17578 51.123 4.78516L86.6699-24.8047C87.0605-25.0977 87.3047-25.3418 87.3047-25.8301C87.3047-26.4648 86.8164-27.002 86.1328-27.002C85.791-27.002 85.498-26.9531 85.1562-26.6602L49.9023 2.88086L14.5996-26.6602C14.209-26.9531 13.916-27.002 13.623-27.002C12.9395-27.002 12.4512-26.4648 12.4512-25.8301C12.4512-25.3418 12.6953-25.0977 13.0859-24.8047L48.4863 4.73633C48.9258 5.07812 49.3164 5.32227 49.8535 5.32227Z"/>
  </g>
  <g id="Black-S" transform="matrix(1 0 0 1 2886.23 696)">
   <path d="M47.168-78.0762C44.1895-78.0762 42.041-76.6113 39.3066-74.4629L13.3789-53.9062C11.1328-52.0996 9.76562-49.5117 9.76562-47.0703C9.76562-41.6016 14.4531-37.8906 18.8477-37.8906C21.2402-37.8906 23.5352-38.916 25.5859-40.5273L47.168-57.1777L68.75-40.5273C70.8008-38.916 73.0957-37.8906 75.4883-37.8906C79.8828-37.8906 84.5703-41.6016 84.5703-47.0703C84.5703-49.5117 83.2031-52.0996 80.957-53.9062L55.0293-74.4629C52.2949-76.6113 50.1465-78.0762 47.168-78.0762ZM47.168 6.83594C50.1465 6.83594 52.2949 5.37109 55.0293 3.22266L80.957-17.334C83.2031-19.1406 84.5703-21.7285 84.5703-24.1699C84.5703-29.6387 79.8828-33.3496 75.4883-33.3496C73.0957-33.3496 70.8008-32.3242 68.75-30.7129L47.168-14.0625L25.5859-30.7129C23.5352-32.3242 21.2402-33.3496 18.8477-33.3496C14.4531-33.3496 9.76562-29.6387 9.76562-24.1699C9.76562-21.7285 11.1328-19.1406 13.3789-17.334L39.3066 3.22266C42.041 5.37109 44.1895 6.83594 47.168 6.83594Z"/>
  </g>
  <g id="Heavy-S" transform="matrix(1 0 0 1 2591.4 696)">
   <path d="M45.2637-76.123C42.7734-76.123 40.918-74.9023 38.5742-73.0957L12.793-52.5391C10.8887-51.0254 9.76562-48.8281 9.76562-46.6309C9.76562-41.8945 13.7695-38.6719 17.6758-38.6719C19.7266-38.6719 21.6797-39.5508 23.4863-40.9668L45.3125-57.959L67.0898-40.9668C68.8965-39.5508 70.8496-38.6719 72.9004-38.6719C76.8066-38.6719 80.8105-41.8945 80.8105-46.6309C80.8105-48.8281 79.6875-51.0254 77.7832-52.5391L52.002-73.0957C49.6582-74.9023 47.8027-76.123 45.2637-76.123ZM45.2637 4.88281C47.8027 4.88281 49.6582 3.71094 52.002 1.85547L77.7832-18.7012C79.6875-20.2148 80.8105-22.4121 80.8105-24.6094C80.8105-29.2969 76.8066-32.5684 72.9004-32.5684C70.8496-32.5684 68.8965-31.6895 67.0898-30.2734L45.3125-13.2812L23.4863-30.2734C21.6797-31.6895 19.7266-32.5684 17.6758-32.5684C13.7695-32.5684 9.76562-29.2969 9.76562-24.6094C9.76562-22.4121 10.8887-20.2148 12.793-18.7012L38.5742 1.85547C40.918 3.71094 42.7734 4.88281 45.2637 4.88281Z"/>
  </g>
  <g id="Bold-S" transform="matrix(1 0 0 1 2296.79 696)">
   <path d="M43.1641-73.9258C41.2109-73.9258 39.6973-72.998 37.793-71.5332L12.1582-50.9766C10.6445-49.8047 9.76562-47.998 9.76562-46.1426C9.76562-42.2363 12.9883-39.5508 16.3086-39.5508C17.9688-39.5508 19.5801-40.2344 21.1426-41.4551L43.1641-58.8379L65.2344-41.4551C66.748-40.2344 68.4082-39.5508 70.0684-39.5508C73.3887-39.5508 76.6113-42.2363 76.6113-46.1426C76.6113-47.998 75.7324-49.8047 74.2188-50.9766L48.584-71.5332C46.6797-72.998 45.166-73.9258 43.1641-73.9258ZM43.1641 2.73438C45.166 2.73438 46.6797 1.80664 48.584 0.292969L74.2188-20.2148C75.7324-21.4355 76.6113-23.1934 76.6113-25.0977C76.6113-28.9551 73.3887-31.6895 70.0684-31.6895C68.4082-31.6895 66.748-31.0059 65.2344-29.7852L43.1641-12.3535L21.1426-29.7852C19.5801-31.0059 17.9688-31.6895 16.3086-31.6895C12.9883-31.6895 9.76562-28.9551 9.76562-25.0977C9.76562-23.1934 10.6445-21.4355 12.1582-20.2148L37.793 0.292969C39.6973 1.80664 41.2109 2.73438 43.1641 2.73438Z"/>
  </g>
  <g id="Semibold-S" transform="matrix(1 0 0 1 2001.54 696)">
   <path d="M41.748-72.4609C40.1367-72.4609 38.8184-71.7285 37.2559-70.459L11.6699-49.9512C10.498-48.9258 9.76562-47.4609 9.76562-45.8008C9.76562-42.4805 12.4512-40.1367 15.3809-40.1367C16.7969-40.1367 18.1641-40.7227 19.5312-41.748L41.748-59.4727L63.9648-41.748C65.2832-40.7227 66.6504-40.1367 68.0664-40.1367C71.0449-40.1367 73.6816-42.4805 73.6816-45.8008C73.6816-47.4609 72.998-48.9258 71.7773-49.9512L46.2402-70.459C44.6289-71.7285 43.3105-72.4609 41.748-72.4609ZM41.748 1.2207C43.3105 1.2207 44.6289 0.488281 46.2402-0.732422L71.7773-21.2891C72.998-22.2656 73.6816-23.7305 73.6816-25.3906C73.6816-28.7109 71.0449-31.0547 68.0664-31.0547C66.6504-31.0547 65.2832-30.4688 63.9648-29.4434L41.748-11.7188L19.5312-29.4434C18.1641-30.4688 16.7969-31.0547 15.3809-31.0547C12.4512-31.0547 9.76562-28.7109 9.76562-25.3906C9.76562-23.7305 10.498-22.2656 11.6699-21.2891L37.2559-0.732422C38.8184 0.488281 40.1367 1.2207 41.748 1.2207Z"/>
  </g>
  <g id="Medium-S" transform="matrix(1 0 0 1 1705.93 696)">
   <path d="M40.625-71.2891C39.3066-71.2891 38.1836-70.7031 36.8164-69.6289L11.3281-49.1211C10.3516-48.291 9.76562-47.0703 9.76562-45.5566C9.76562-42.6758 12.0117-40.5762 14.6973-40.5762C15.918-40.5762 17.0898-41.0645 18.3105-42.041L40.625-59.9121L62.9883-42.041C64.1602-41.0645 65.3809-40.5762 66.5527-40.5762C69.2383-40.5762 71.4844-42.6758 71.4844-45.5566C71.4844-47.0703 70.8984-48.291 69.9219-49.1211L44.4336-69.6289C43.1152-70.7031 41.9434-71.2891 40.625-71.2891ZM40.625 0.0976562C41.9434 0.0976562 43.1152-0.488281 44.4336-1.5625L69.9219-22.0703C70.8984-22.9004 71.4844-24.1211 71.4844-25.6348C71.4844-28.5156 69.2383-30.6152 66.5527-30.6152C65.3809-30.6152 64.1602-30.127 62.9883-29.1992L40.625-11.2793L18.3105-29.1992C17.0898-30.127 15.918-30.6152 14.6973-30.6152C12.0117-30.6152 9.76562-28.5156 9.76562-25.6348C9.76562-24.1211 10.3516-22.9004 11.3281-22.0703L36.8164-1.5625C38.1836-0.488281 39.3066 0.0976562 40.625 0.0976562Z"/>
  </g>
  <g id="Regular-S" transform="matrix(1 0 0 1 1410.64 696)">
   <path d="M39.209-69.8242C38.2324-69.8242 37.3047-69.4336 36.2793-68.6035L10.8887-48.0957C10.2051-47.4609 9.76562-46.5332 9.76562-45.2148C9.76562-42.9199 11.4746-41.1621 13.8184-41.1621C14.7461-41.1621 15.6738-41.5527 16.6992-42.334L39.209-60.5469L61.7188-42.334C62.6953-41.5527 63.6719-41.1621 64.5996-41.1621C66.8945-41.1621 68.6523-42.9199 68.6523-45.2148C68.6523-46.5332 68.2129-47.4609 67.4805-48.0957L42.1387-68.6035C41.0645-69.4336 40.1367-69.8242 39.209-69.8242ZM39.209-1.36719C40.1367-1.36719 41.0645-1.75781 42.1387-2.58789L67.4805-23.0957C68.2129-23.7305 68.6523-24.6582 68.6523-25.9766C68.6523-28.2715 66.8945-30.0293 64.5996-30.0293C63.6719-30.0293 62.6953-29.6387 61.7188-28.8574L39.209-10.6445L16.6992-28.8574C15.6738-29.6387 14.7461-30.0293 13.8184-30.0293C11.4746-30.0293 9.76562-28.2715 9.76562-25.9766C9.76562-24.6582 10.2051-23.7305 10.8887-23.0957L36.2793-2.58789C37.3047-1.75781 38.2324-1.36719 39.209-1.36719Z"/>
  </g>
  <g id="Light-S" transform="matrix(1 0 0 1 1113.97 696)">
   <path d="M39.1602-69.1406C38.3789-69.1406 37.6465-68.8477 36.8164-68.1641L10.6934-46.8262C10.1074-46.3379 9.76562-45.6543 9.76562-44.6289C9.76562-42.8711 11.084-41.5527 12.8418-41.5527C13.5254-41.5527 14.2578-41.8457 15.0391-42.4316L39.1602-62.207L63.2812-42.4316C64.0137-41.8457 64.7949-41.5527 65.5273-41.5527C67.2363-41.5527 68.5547-42.8711 68.5547-44.6289C68.5547-45.6543 68.2129-46.3379 67.627-46.8262L41.4551-68.1641C40.6738-68.8477 39.9414-69.1406 39.1602-69.1406ZM39.1602-2.05078C39.9414-2.05078 40.6738-2.34375 41.4551-3.02734L67.627-24.3652C68.2129-24.8535 68.5547-25.5371 68.5547-26.5625C68.5547-28.3203 67.2363-29.6387 65.5273-29.6387C64.7949-29.6387 64.0137-29.3457 63.2812-28.7598L39.1602-8.98438L15.0391-28.7598C14.2578-29.3457 13.5254-29.6387 12.8418-29.6387C11.084-29.6387 9.76562-28.3203 9.76562-26.5625C9.76562-25.5371 10.1074-24.8535 10.6934-24.3652L36.8164-3.02734C37.6465-2.34375 38.3789-2.05078 39.1602-2.05078Z"/>
  </g>
  <g id="Thin-S" transform="matrix(1 0 0 1 817.311 696)">
   <path d="M39.1113-68.3105C38.5254-68.3105 38.0371-68.0664 37.5488-67.627L10.4492-45.2148C10.0098-44.873 9.76562-44.4824 9.76562-43.8477C9.76562-42.8711 10.498-42.041 11.5723-42.041C11.9629-42.041 12.4023-42.1875 12.8906-42.5781L39.1602-64.3555L65.332-42.5781C65.8203-42.1875 66.2598-42.041 66.6992-42.041C67.7246-42.041 68.457-42.8711 68.457-43.8477C68.457-44.4824 68.2129-44.873 67.8223-45.2148L40.625-67.6758C40.0879-68.1152 39.6973-68.3105 39.1113-68.3105ZM39.1113-2.88086C39.6973-2.88086 40.0879-3.07617 40.625-3.51562L67.8223-25.9766C68.2129-26.3184 68.457-26.709 68.457-27.3438C68.457-28.3203 67.7246-29.1504 66.6992-29.1504C66.2598-29.1504 65.8203-29.0039 65.332-28.6133L39.1602-6.83594L12.8906-28.6133C12.4023-29.0039 11.9629-29.1504 11.5723-29.1504C10.498-29.1504 9.76562-28.3203 9.76562-27.3438C9.76562-26.709 10.0098-26.3184 10.4492-25.9766L37.5488-3.56445C38.0371-3.125 38.5254-2.88086 39.1113-2.88086Z"/>
  </g>
  <g id="Ultralight-S" transform="matrix(1 0 0 1 520.624 696)">
   <path d="M39.0625-67.8711C38.623-67.8711 38.2812-67.6758 37.8906-67.334L10.3027-44.3848C9.96094-44.1406 9.76562-43.8965 9.76562-43.457C9.76562-42.8223 10.2051-42.334 10.8887-42.334C11.1816-42.334 11.4258-42.3828 11.7676-42.6758L39.1113-65.4785L66.4062-42.6758C66.748-42.3828 66.9922-42.334 67.2852-42.334C67.9688-42.334 68.4082-42.8223 68.4082-43.457C68.4082-43.8965 68.2129-44.1406 67.9199-44.3848L40.1855-67.3828C39.7949-67.7246 39.5508-67.8711 39.0625-67.8711ZM39.0625-3.32031C39.5508-3.32031 39.7949-3.4668 40.1855-3.80859L67.9199-26.8066C68.2129-27.0508 68.4082-27.2949 68.4082-27.7344C68.4082-28.3691 67.9688-28.8574 67.2852-28.8574C66.9922-28.8574 66.748-28.8086 66.4062-28.5156L39.1113-5.71289L11.7676-28.5156C11.4258-28.8086 11.1816-28.8574 10.8887-28.8574C10.2051-28.8574 9.76562-28.3691 9.76562-27.7344C9.76562-27.2949 9.96094-27.0508 10.3027-26.8066L37.8906-3.85742C38.2812-3.51562 38.623-3.32031 39.0625-3.32031Z"/>
  </g>
 </g>
</svg>
